<?xml version="1.0" encoding="UTF-8" standalone="no"?><!DOCTYPE svg PUBLIC "-//W3C//DTD SVG 1.1//EN" "http://www.w3.org/Graphics/SVG/1.1/DTD/svg11.dtd"><svg width="16px" height="16px" viewBox="0 0 21 21" version="1.1" xmlns="http://www.w3.org/2000/svg" xmlns:xlink="http://www.w3.org/1999/xlink" xml:space="preserve" xmlns:serif="http://www.serif.com/" style="fill-rule:evenodd;clip-rule:evenodd;stroke-linecap:round;stroke-linejoin:round;stroke-miterlimit:2;"><g id="icon-blue" serif:id="icon blue"><rect x="0.462" y="0.906" width="20" height="20" style="fill:none;"/><g id="icon"><path d="M3.405,2.319c1.811,0.007 3.622,0.058 5.431,0.158c1.091,0.069 2.159,0.309 3.142,0.797c1.837,0.957 3.134,2.539 3.798,4.493c0.331,1.036 0.489,2.119 0.469,3.207c-0.021,1.165 -0.232,2.32 -0.657,3.406c-0.381,0.948 -0.916,1.815 -1.612,2.564c-0.678,0.698 -1.475,1.255 -2.355,1.671c-0.924,0.412 -1.91,0.635 -2.918,0.705c-1.766,0.109 -3.536,0.165 -5.306,0.174c0.046,-5.725 0.047,-11.451 0.008,-17.175Z" style="fill:none;stroke:#0087e1;stroke-width:2.42px;"/><path d="M11.35,8.935c-0.172,-1.164 -1.176,-2.058 -2.388,-2.058c-1.212,0 -2.216,0.894 -2.388,2.058" style="fill:none;stroke:#0087e1;stroke-width:1.82px;stroke-linejoin:miter;"/><path d="M8.779,13.517c1.699,2.481 3.979,-0.962 5.481,-0.962c1.502,0 2.808,3.443 4.507,0.962" style="fill:none;stroke:#0087e1;stroke-width:2.42px;"/></g></g></svg>